<svg width="1200" height="628" viewBox="0 0 1200 628" fill="none" xmlns="http://www.w3.org/2000/svg">
<rect width="1200" height="628" fill="#0070F3"/>
<path d="M542.992 288.306H578.944V238.444C578.944 220.611 582.011 206.273 588.146 195.43C594.423 184.587 602.341 176.741 611.9 171.89C621.601 166.897 631.517 164.4 641.646 164.4C653.915 164.4 663.331 166.112 669.894 169.536C676.599 172.96 680.594 175.243 681.878 176.384L666.898 204.846C666.185 203.99 663.973 202.421 660.264 200.138C656.555 197.855 651.49 196.714 645.07 196.714C640.362 196.714 635.797 197.855 631.374 200.138C626.951 202.421 623.242 206.843 620.246 213.406C617.25 219.969 615.752 229.741 615.752 242.724V288.306H665.828V320.192H615.752V464H578.944V320.192H542.992V288.306Z" fill="white"/>
<path d="M570.719 504.214H591.278V505.854H572.604V518.197H590.164V519.837H572.604V533.389H591.492V535.029H570.719V504.214ZM593.12 504.214H595.304L604.983 517.766L614.877 504.214L628.334 487L606.225 519.19L617.618 535.029H615.348L604.983 520.614L594.576 535.029H592.349L603.827 519.19L593.12 504.214ZM618.432 505.854V504.214H641.86V505.854H631.067V535.029H629.182V505.854H618.432ZM545 504.214H547.356L579.838 553L566.415 535.029L546.97 506.544L546.885 535.029H545V504.214ZM641.67 532.894C641.285 532.894 640.996 532.594 640.996 532.207C640.996 531.821 641.285 531.521 641.67 531.521C642.06 531.521 642.344 531.82 642.344 532.207C642.344 532.594 642.06 532.894 641.67 532.894ZM643.522 531.088H644.53C644.544 531.636 644.943 532.005 645.53 532.005C646.185 532.005 646.556 531.609 646.556 530.867V526.168H647.583V530.871C647.583 532.207 646.813 532.977 645.539 532.977C644.342 532.977 643.522 532.23 643.522 531.088V531.088ZM648.926 531.028H649.944C650.031 531.659 650.645 532.06 651.53 532.06C652.355 532.06 652.96 531.631 652.96 531.042C652.96 530.535 652.574 530.231 651.699 530.024L650.846 529.817C649.65 529.535 649.105 528.955 649.105 527.979C649.105 526.795 650.067 526.007 651.511 526.007C652.854 526.007 653.835 526.795 653.895 527.914H652.895C652.799 527.302 652.267 526.919 651.497 526.919C650.686 526.919 650.145 527.311 650.145 527.909C650.145 528.384 650.493 528.656 651.355 528.858L652.084 529.038C653.441 529.356 654 529.909 654 530.908C654 532.18 653.019 532.977 651.452 532.977C649.985 532.977 648.999 532.216 648.926 531.028V531.028Z" fill="white"/>
</svg>
