<svg width="512" height="512" viewBox="0 0 512 512" fill="none" xmlns="http://www.w3.org/2000/svg">
<rect width="512" height="512" rx="100" fill="#0070F3"/>
<path d="M198.992 230.306H234.944V180.444C234.944 162.611 238.011 148.273 244.146 137.43C250.423 126.587 258.341 118.741 267.9 113.89C277.601 108.897 287.517 106.4 297.646 106.4C309.915 106.4 319.331 108.112 325.894 111.536C332.599 114.96 336.594 117.243 337.878 118.384L322.898 146.846C322.185 145.99 319.973 144.421 316.264 142.138C312.555 139.855 307.49 138.714 301.07 138.714C296.362 138.714 291.797 139.855 287.374 142.138C282.951 144.421 279.242 148.843 276.246 155.406C273.25 161.969 271.752 171.741 271.752 184.724V230.306H321.828V262.192H271.752V406H234.944V262.192H198.992V230.306Z" fill="white"/>
</svg>
